<svg xmlns="http://www.w3.org/2000/svg" width="128" height="128" viewBox="0 0 128 128">
  <title>BANJO</title>
  <g>
    <path d="M123.415,17.06A16.831,16.831,0,0,0,110.94,4.585a1.738,1.738,0,0,0-1.632.57l-10.141,11.6a1.723,1.723,0,0,0-.293.468L96.9,21.879,57.966,60.389a34.4,34.4,0,0,0-43.337,52.982,34.907,34.907,0,0,0,4.249,3.609c.014.011.03.021.046.032A34.4,34.4,0,0,0,67.611,70.034L87.525,49.9h0l18.594-18.8,4.659-1.979a1.723,1.723,0,0,0,.468-.293l11.6-10.141A1.748,1.748,0,0,0,123.415,17.06ZM86.282,46.183l-4.465-4.465,6.672-6.6,4.393,4.393ZM75.818,56.761l-4.579-4.579,8.09-8,4.492,4.492ZM14.611,108.072l9.523-11.8,7.6,7.6-11.8,9.523a30.274,30.274,0,0,1-5.318-5.317Zm9.3-34.052A21.26,21.26,0,0,1,53.98,104.086a21.375,21.375,0,0,1-22.817,4.736l4.281-3.455a1.749,1.749,0,0,0,.139-2.6L25.232,92.417a1.767,1.767,0,0,0-1.331-.51,1.749,1.749,0,0,0-1.268.649l-3.455,4.282A21.374,21.374,0,0,1,23.915,74.02ZM60.79,110.9a30.915,30.915,0,0,1-37.868,4.575l5.168-4.17a24.758,24.758,0,1,0-6.65-39.756A24.881,24.881,0,0,0,16.706,99.9l-4.177,5.177A30.895,30.895,0,0,1,60.79,67.21a30.89,30.89,0,0,1,0,43.686Zm2.475-46.161q-1.184-1.182-2.458-2.233l7.944-7.859,4.606,4.606L65.5,67.193Q64.445,65.921,63.265,64.735ZM95.343,37.023l-4.366-4.366,7.387-7.308,4.287,4.287Zm13.812-11.009-3.633,1.543-5.079-5.079,1.543-3.633L111.22,8.286a13.442,13.442,0,0,1,8.5,8.494Z" fill="#241c49" stroke="#0a2119" stroke-miterlimit="10"/>
    <path d="M112.067,13.458l-7.311,7.312a1.749,1.749,0,1,0,2.474,2.474l7.312-7.311a1.75,1.75,0,0,0-2.475-2.475Z" fill="#241c49" stroke="#0a2119" stroke-miterlimit="10"/>
    <path d="M42.885,95.465a1.75,1.75,0,1,0,2.475-2.474L35.009,82.641a1.749,1.749,0,0,0-2.474,2.474Z" fill="#241c49" stroke="#0a2119" stroke-miterlimit="10"/>
  </g>
</svg>
