<svg xmlns="http://www.w3.org/2000/svg" width="128" height="128" viewBox="0 0 128 128">
  <title>DRUM</title>
  <g>
    <path d="M121.693,63.118a1.75,1.75,0,0,0,1.75-1.75V54.85a5.756,5.756,0,0,0-5.75-5.75H10.307a5.756,5.756,0,0,0-5.75,5.75v6.518a1.75,1.75,0,0,0,1.75,1.75h1.81v46.308H6.307a1.749,1.749,0,0,0-1.75,1.75v10.517a1.749,1.749,0,0,0,1.75,1.75H121.693a1.749,1.749,0,0,0,1.75-1.75V111.176a1.749,1.749,0,0,0-1.75-1.75h-1.81V63.118ZM8.057,54.85a2.252,2.252,0,0,1,2.25-2.25H117.693a2.252,2.252,0,0,1,2.25,2.25v4.768H8.057Zm68.519,54.576V63.118H94.729v46.308Zm-21.652,0V63.118H73.076v46.308Zm-21.653,0V63.118H51.424v46.308ZM11.617,63.118H29.771v46.308H11.617Zm108.326,56.825H8.057v-7.017H119.943Zm-3.56-10.517H98.229V63.118h18.154Z" fill="#241c49" stroke="#0a2119" stroke-miterlimit="10"/>
    <path d="M17.843,7.954,58.822,22.67,31.506,32.48A5.765,5.765,0,0,0,24.9,30.5l-4.345,1.561A5.847,5.847,0,0,0,22.525,43.41a5.874,5.874,0,0,0,1.98-.347L28.851,41.5a5.76,5.76,0,0,0,3.838-5.728L64,24.529,95.311,35.774A5.76,5.76,0,0,0,99.149,41.5l4.346,1.561a5.8,5.8,0,0,0,4.468-.215,5.843,5.843,0,0,0-.517-10.785L103.1,30.5a5.765,5.765,0,0,0-6.607,1.978L69.178,22.67,110.157,7.954a1.75,1.75,0,1,0-1.183-3.294L64,20.81,19.026,4.66a1.75,1.75,0,1,0-1.183,3.294ZM29,37a2.322,2.322,0,0,1-1.328,1.206l-4.346,1.561a2.344,2.344,0,1,1-1.584-4.412L26.083,33.8a2.367,2.367,0,0,1,.794-.139,2.345,2.345,0,0,1,2.2,1.553l0,0A2.333,2.333,0,0,1,29,37Zm71.13-3.12a2.333,2.333,0,0,1,1-.225,2.367,2.367,0,0,1,.794.139l4.346,1.561a2.344,2.344,0,1,1-1.584,4.412l-4.346-1.561a2.343,2.343,0,0,1-1.415-2.995l0,0A2.33,2.33,0,0,1,100.125,33.882Z" fill="#241c49" stroke="#0a2119" stroke-miterlimit="10"/>
  </g>
</svg>
