<?xml version="1.0" encoding="iso-8859-1"?>
<!-- Generator: Adobe Illustrator 19.0.0, SVG Export Plug-In . SVG Version: 6.00 Build 0)  -->
<svg version="1.1" id="Layer_1" xmlns="http://www.w3.org/2000/svg" xmlns:xlink="http://www.w3.org/1999/xlink" x="0px" y="0px"
	 viewBox="0 0 511.997 511.997" style="enable-background:new 0 0 511.997 511.997;" xml:space="preserve">
<path style="fill:#CC7400;" d="M333.841,346.201c-4.202-3.607-6.79-4.501-12.675-1.754c0.002-0.001-14.019,8.311-14.019-36.255
	c0-31.016,13.289-26.632,18.023-24.086c4.282,2.585,6.739,4.477,6.739,4.477c8.686,6.072,12.108-3.875,12.316-4.51
	c0.424-3.44,0.658-6.938,0.658-10.489v-26.881c0-47.737-39.058-86.795-86.795-86.795s-86.795,39.058-86.795,86.795v26.881
	c0,3.552,0.233,7.048,0.658,10.489c0.208,0.635,3.63,10.583,12.316,4.51c0,0,2.458-1.892,6.739-4.477
	c4.734-2.546,18.023-6.93,18.023,24.086c0,44.835-14.021,36.253-14.019,36.255c-5.885-2.748-8.472-1.854-12.675,1.754
	c-15.812,16.176-25.598,38.263-25.598,62.53l0,0c0,49.279,40.319,89.6,89.6,89.6h23.503c49.279,0,89.6-40.319,89.6-89.599l0,0
	C359.44,384.463,349.653,362.377,333.841,346.201z"/>
<g>
	<path style="fill:#AA6100;" d="M173.168,408.732L173.168,408.732c0-24.268,9.787-46.355,25.598-62.531
		c4.202-3.607,6.79-4.501,12.675-1.753c-0.002-0.001,14.019,8.58,14.019-36.255c0-31.016-13.289-26.632-18.023-24.086
		c-1.157,0.698-2.175,1.343-3.052,1.917c2.683,3.578,4.647,10.256,4.647,22.169c0,44.835-14.021,36.253-14.019,36.255
		c-5.885-2.748-8.472-1.854-12.675,1.753c-15.812,16.176-25.598,38.263-25.598,62.531l0,0c0,49.279,40.319,89.6,89.6,89.6h16.422
		C213.483,498.328,173.168,458.009,173.168,408.732z"/>
	<path style="fill:#AA6100;" d="M187.884,273.459v-26.881c0-44.967,34.66-82.218,78.58-86.393c-2.706-0.257-5.444-0.402-8.214-0.402
		c-47.738,0-86.795,39.058-86.795,86.795v26.881c0,3.551,0.233,7.048,0.658,10.489c0.208,0.635,3.63,10.583,12.316,4.51
		c0,0,1.671-1.286,4.655-3.185c-0.323-0.683-0.499-1.196-0.542-1.325C188.118,280.507,187.884,277.011,187.884,273.459z"/>
</g>
<path style="fill:#3E3D42;" d="M241.695,429.651l7.173,66.405c0.514,4.748,4.521,8.346,9.296,8.346c0.002,0,0.005,0,0.008,0
	c4.778-0.004,8.785-3.61,9.289-8.362l7.057-66.39h-32.823V429.651z"/>
<polygon style="fill:#1D1D1F;" points="245.312,463.148 270.957,463.148 274.518,429.651 241.695,429.651 "/>
<path style="fill:#2D2D30;" d="M282.686,447.954h-49.194c-13.679,0-13.679-14.56-13.679-14.56s0.146-14.559,13.679-14.559h49.194
	c13.679,0,13.679,14.559,13.679,14.559S296.365,447.954,282.686,447.954z"/>
<g>
	<path style="fill:#3E3D42;" d="M236.591,337.693c-8.249-3.147-17.522,1.004-20.667,9.253l-11.647,30.525
		c-0.095,0.249-0.493,0.721-1.054,0.471c-0.244-0.109-0.706-0.447-0.473-1.055c1.503-3.917-0.469-8.311-4.389-9.807
		c-3.917-1.493-8.311,0.469-9.807,4.389c-1.522,3.987-1.396,8.336,0.355,12.246c1.749,3.909,4.91,6.901,8.898,8.422
		c1.847,0.705,16.074,4.889,20.666-9.252l11.646-30.524c0.155-0.406,0.647-0.629,1.056-0.472c0.406,0.155,0.627,0.648,0.472,1.057
		c-1.495,3.92,0.471,8.311,4.391,9.806c3.918,1.494,8.311-0.47,9.807-4.392C248.991,350.113,244.84,340.841,236.591,337.693z"/>
	<path style="fill:#3E3D42;" d="M329.652,370.66c-1.496-3.922-5.887-5.886-9.807-4.391c-3.92,1.495-5.887,5.885-4.391,9.806
		c0.155,0.407-0.065,0.901-0.472,1.057c-0.406,0.156-0.901-0.066-1.055-0.471l-11.646-30.524c-1.522-3.988-4.512-7.148-8.422-8.898
		c-3.909-1.75-8.26-1.876-12.245-0.355c-3.988,1.521-7.148,4.512-8.898,8.422s-1.876,8.259-0.355,12.246
		c1.495,3.92,5.884,5.884,9.807,4.389c3.92-1.496,5.956-5.915,4.389-9.807c-0.215-0.533,0.223-0.957,0.473-1.055
		c0.611-0.238,0.958,0.222,1.055,0.472l11.646,30.525c6.08,13.178,18.796,9.965,20.667,9.251
		C328.647,388.181,332.798,378.91,329.652,370.66z"/>
	<path style="fill:#3E3D42;" d="M207.549,433.887c-12.577-13.46-29.139-21.385-44.305-21.198
		c-1.997,0.024-10.977,0.114-10.654,6.257c0.964,18.313,6.638,35.681,17.999,50.168c10.989,14.013,26.394,24.422,43.375,29.31
		c0.546,0.157,4.118,1.044,6.376-2.399C231.183,479.488,225.645,453.252,207.549,433.887z"/>
</g>
<path style="fill:#2D2D30;" d="M178.271,461.404c-10.922-14.141-16.682-30.838-17.888-48.556c-3.342,0.367-8.028,1.627-7.793,6.097
	c0.964,18.312,6.638,35.681,17.999,50.168c10.989,14.013,26.394,24.422,43.375,29.31c0.546,0.157,4.118,1.044,6.376-2.399
	c1.058-1.612,1.953-3.319,2.703-5.099C222.35,490.897,192.608,479.967,178.271,461.404z"/>
<g>
	<path style="fill:#AA6100;" d="M319.559,254.302c-4.197,0-7.598-3.402-7.598-7.597c0-16.958-8.168-33.142-21.847-43.293
		c-3.37-2.5-4.074-7.258-1.575-10.628c2.502-3.37,7.261-4.075,10.628-1.574c17.526,13.004,27.989,33.749,27.989,55.495
		C327.157,250.902,323.756,254.302,319.559,254.302z"/>
	<path style="fill:#AA6100;" d="M313.513,456.452c-3.176-2.743-3.524-7.541-0.781-10.717c5.949-6.884,10.192-15.169,12.269-23.954
		c0.965-4.084,5.067-6.608,9.141-5.645c4.083,0.965,6.611,5.059,5.645,9.141c-2.638,11.156-7.592,22.053-15.56,30.394
		C320.415,459.664,314.949,457.693,313.513,456.452z"/>
</g>
<path style="fill:#FFFFFF;" d="M285.029,392.929h-53.88c-4.197,0-7.597-3.402-7.597-7.598s3.401-7.598,7.597-7.598h53.88
	c4.196,0,7.597,3.402,7.597,7.598S289.226,392.929,285.029,392.929z"/>
<path style="fill:#3E3D42;" d="M266.382,65.723h-16.585l-8.403,239.661c0.555,2.418,2.71,4.226,5.297,4.226h22.798
	c2.587,0,4.742-1.808,5.297-4.226L266.382,65.723z"/>
<g>
	<path style="fill:#2D2D30;" d="M253.044,305.385l8.403-239.661h-11.65l-8.403,239.661c0.555,2.418,2.71,4.226,5.297,4.226h11.649
		C255.753,309.611,253.599,307.803,253.044,305.385z"/>
	<path style="fill:#2D2D30;" d="M266.382,65.723h-16.585l-0.653,18.626c2.062,0.57,4.23,0.881,6.472,0.881h4.947
		c2.241,0,4.41-0.311,6.472-0.881L266.382,65.723z"/>
</g>
<path style="fill:#CC7400;" d="M265.195,7.597h-14.212c-5.014,0-9.117,4.103-9.117,9.117V34.24c0,3.385,1.874,6.349,4.632,7.922
	v18.757c0,5.014,4.103,9.117,9.117,9.117h4.947c5.014,0,9.117-4.103,9.117-9.117V42.163c2.758-1.572,4.632-4.536,4.632-7.922V16.714
	C274.312,11.7,270.21,7.597,265.195,7.597z"/>
<path style="fill:#AA6100;" d="M274.312,34.241V16.714c0-5.014-4.103-9.117-9.117-9.117h-14.212c-5.014,0-9.117,4.103-9.117,9.117
	v17.527c0,3.385,1.874,6.349,4.632,7.922h23.181C272.438,40.591,274.312,37.627,274.312,34.241z"/>
<path d="M171.295,254.303c4.197,0,7.597-3.402,7.597-7.598c0-8.356,1.312-16.596,3.9-24.489c1.307-3.988-0.865-8.279-4.853-9.586
	c-3.985-1.309-8.279,0.866-9.586,4.853c-3.09,9.424-4.656,19.256-4.656,29.223C163.697,250.902,167.098,254.303,171.295,254.303z"/>
<path d="M367.037,408.732c0-25.432-9.859-49.526-27.763-67.842c-0.155-0.158-8.57-10.266-20.211-3.82
	c-1.263-1.873-4.317-8.51-4.317-28.877c0-15.813,3.66-18.183,3.697-18.206c0.309-0.186,11.348,10.585,22.894,7.471
	c6.902-1.861,10.91-10.224,11.145-23.871v-26.882c0-44.738-32.033-83.487-75.393-92.436l-2.916-83.189
	c-0.005-0.149-0.023-0.294-0.037-0.441c1.97-2.742,3.143-6.093,3.143-9.72V45.764c2.929-3.07,4.632-7.187,4.632-11.523V16.714
	C281.91,7.498,274.412,0,265.195,0h-14.211c-9.216,0-16.714,7.498-16.714,16.714V34.24c0,4.336,1.705,8.452,4.631,11.523v15.155
	c0,3.614,1.165,6.954,3.123,9.691l-2.933,83.641c-22.667,4.706-43.313,17.957-57.152,36.831c-2.482,3.383-1.75,8.138,1.633,10.619
	c1.354,0.993,2.928,1.471,4.488,1.471c2.338,0,4.645-1.076,6.133-3.105c10.886-14.844,26.766-25.54,44.348-30.086l-4.738,135.136
	c-0.023,0.66,0.04,1.321,0.188,1.965c1.368,5.962,6.591,10.125,12.701,10.125h22.798c6.11,0,11.333-4.163,12.701-10.124
	c0.148-0.644,0.212-1.306,0.188-1.965l-4.738-135.135c34.534,8.853,59.647,40.44,59.647,76.721c0,0,1.031,28.415-0.925,35.721
	c-0.695-0.522-15.138-12.118-25.715-5.482c-7.369,4.623-11.896,14.704-11.096,31.249c3.059,63.289,27.069,42.281,27.292,42.251
	c0.194,0.093,25,22.811,25,58.288c0,43.247-33.659,78.758-76.152,81.769l3.715-34.951h3.281c15.609,0,21.276-13.251,21.276-22.157
	s-5.667-22.157-21.276-22.157h-49.194c-12.747,0-18.878,8.989-20.684,17.163c-13.631-14.44-31.592-23.099-48.384-23.286
	c3.119-41.737,24.718-54.577,24.914-54.671c0.23,0.03,27.292,17.323,27.292-42.251c0-16.565-3.722-26.635-11.096-31.249
	c-11.821-7.396-25.876,5.589-25.948,5.634c-0.07-0.123-0.693-6.182-0.693-8.992c0-4.196-3.401-7.598-7.597-7.598
	c-4.197,0-7.597,3.402-7.597,7.598c0,14.703,4.299,21.82,11.146,23.872c9.119,2.733,22.586-7.656,22.894-7.471
	c0.037,0.022,3.697,2.393,3.697,18.206c0,20.268-2.994,26.974-4.259,28.901c-12.411-5.457-20.115,3.639-20.271,3.797
	c-26.077,26.37-27.749,68.248-27.733,68.448c-0.309,0.271-4.717,1.269-4.166,10.004c0.575,9.145,2.062,17.966,4.7,26.197
	c1.281,3.996,5.561,6.198,9.554,4.917c3.996-1.28,6.198-5.557,4.917-9.554c-2.05-6.398-3.351-13.245-3.873-20.379
	c0.671-0.12,22.266-2.616,41.695,18.547c15.031,16.372,20.469,38.132,12.693,51.638c-14.914-4.606-28.41-13.9-38.123-26.287
	c-2.589-3.302-7.367-3.879-10.666-1.291c-3.302,2.589-3.88,7.366-1.29,10.667c11.967,15.26,28.747,26.596,47.249,31.923
	c1.135,0.327,7.953,1.332,12.074-2.425c6.936,1.651,14.058,2.525,21.227,2.612c3.122,3.737,7.803,6.09,13.017,6.09
	c5.202-0.004,9.874-2.356,12.989-6.088C324.152,505.199,367.037,461.883,367.037,408.732z M249.465,16.714
	c0-0.824,0.696-1.519,1.52-1.519h14.211c0.824,0,1.52,0.696,1.52,1.519V34.24c0,0.639-0.411,1.101-0.796,1.321
	c-2.372,1.351-3.836,3.872-3.836,6.602V60.92c0,0.824-0.696,1.519-1.52,1.519h-4.947c-0.824,0-1.52-0.696-1.52-1.519V42.163
	c0-2.729-1.464-5.249-3.835-6.601c-0.385-0.219-0.796-0.682-0.796-1.321L249.465,16.714L249.465,16.714z M249.114,302.013
	l7.867-224.379h2.216l7.867,224.379H249.114z M233.492,426.432h49.194c4.849,0,5.988,3.765,6.079,6.962
	c-0.091,3.196-1.23,6.962-6.079,6.962h-49.194c-4.858,0-5.992-3.779-6.08-6.98C227.446,431.625,228.015,426.432,233.492,426.432z
	 M240.629,490.529c-3.032-0.212-6.045-0.596-9.024-1.142c3.011-10.401,2.214-22.394-2.043-34.143
	c1.235,0.198,7.289,0.307,7.289,0.307L240.629,490.529z M258.164,496.805c-0.897,0-1.646-0.673-1.742-1.564l-4.287-39.689h11.99
	l-4.219,39.688C259.81,496.131,259.063,496.804,258.164,496.805z"/>
<g>
</g>
<g>
</g>
<g>
</g>
<g>
</g>
<g>
</g>
<g>
</g>
<g>
</g>
<g>
</g>
<g>
</g>
<g>
</g>
<g>
</g>
<g>
</g>
<g>
</g>
<g>
</g>
<g>
</g>
</svg>
