<?xml version="1.0" encoding="iso-8859-1"?>
<!-- Generator: Adobe Illustrator 19.0.0, SVG Export Plug-In . SVG Version: 6.00 Build 0)  -->
<svg xmlns="http://www.w3.org/2000/svg" xmlns:xlink="http://www.w3.org/1999/xlink" version="1.1" id="Layer_1" x="0px" y="0px" viewBox="0 0 512 512" style="enable-background:new 0 0 512 512;" xml:space="preserve">
<path style="fill:#EAEAE9;" d="M365.331,233.602c-28.889-17.469-75.695-38.751-134.617-40.945l-2.076-0.079v-77.633l2.076-0.078  c58.924-2.195,105.73-23.478,134.619-40.947c11.644-7.04,21.401-14.041,28.971-19.957V43.238l-3.561,3.057  c-7.973,6.846-21.098,17.196-38.346,27.624c-28.889,17.469-75.695,38.752-134.619,40.947l-2.076,0.078v77.633l2.076,0.079  c58.923,2.194,105.729,23.476,134.617,40.945c17.248,10.428,30.373,20.778,38.347,27.624l3.561,3.057v-10.725  C386.732,247.644,376.977,240.643,365.331,233.602z"/>
<path style="fill:#FFD05C;" d="M145.313,459.333h281.052v-57.295H145.313V459.333z M406.161,430.685c0,3.268-2.66,5.929-5.929,5.929  H174.133c-3.268,0-5.929-2.66-5.929-5.929s2.66-5.929,5.929-5.929h226.099C403.5,424.756,406.161,427.416,406.161,430.685z"/>
<g style="opacity:0.1;">
	<rect x="145.313" y="402.034" width="13.088" height="57.295"/>
</g>
<path style="fill:#415B6B;" d="M203.844,181.389v-52.584h-30.542c-8.8,0-15.96,7.159-15.96,15.958v20.67  c0,8.799,7.16,15.956,15.96,15.956h30.542V181.389z"/>
<g style="opacity:0.1;">
	<path d="M170.318,165.433v-20.67c0-8.8,7.16-15.958,15.96-15.958h-12.975c-8.8,0-15.96,7.159-15.96,15.958v20.67   c0,8.799,7.16,15.956,15.96,15.956h12.974C177.476,181.389,170.318,174.231,170.318,165.433z"/>
</g>
<path style="fill:#FFAC61;" d="M445.712,463.645H125.963c-11.434,0-20.737,9.302-20.737,20.736v0.413  c0,11.434,9.303,20.737,20.737,20.737h319.749c11.435,0,20.739-9.303,20.739-20.737v-0.413  C466.452,472.947,457.148,463.645,445.712,463.645z"/>
<g style="opacity:0.1;">
	<path d="M126.061,484.795v-0.413c0-11.434,9.303-20.736,20.737-20.736h-20.835c-11.434,0-20.737,9.302-20.737,20.736v0.413   c0,11.434,9.303,20.737,20.737,20.737h20.835C135.364,505.532,126.061,496.229,126.061,484.795z"/>
</g>
<path style="fill:#415B6B;" d="M426.364,283.407V24.117c0-5.571-4.532-10.103-10.102-10.103c-5.57,0-10.102,4.532-10.102,10.103  v259.291c0,5.57,4.532,10.102,10.102,10.102C421.833,293.509,426.364,288.977,426.364,283.407z"/>
<rect x="226.841" y="319.169" style="fill:#ABB2BA;" width="45.609" height="24.228"/>
<path d="M445.712,457.177h-5.334v-61.068c0-4.466-3.619-8.085-8.085-8.085h-292.91c-4.466,0-8.085,3.619-8.085,8.085v26.49H55.25  V253.756h15.731c4.824,49.854,46.956,88.958,98.054,88.958h43.789v6.616c0,4.466,3.619,8.085,8.085,8.085h20.649v14.637  c0,4.466,3.619,8.085,8.085,8.085s8.085-3.619,8.085-8.085v-14.636h20.65c4.466,0,8.085-3.619,8.085-8.085v-36.085  c0-4.466-3.619-8.085-8.085-8.085h-57.469c-4.466,0-8.085,3.619-8.085,8.085v13.3h-43.789c-42.173,0-77.022-31.872-81.777-72.789  h14.703c4.465,0,8.085-3.619,8.085-8.085s-3.62-8.085-8.085-8.085H86.955c2.641-32.987,24.88-61.325,56.385-71.641  c0.277,16.288,13.604,29.456,29.96,29.456h28.387v3.003c0,4.441,3.582,8.051,8.023,8.085c58.98,0.443,105.934,21.348,134.94,38.805  c25.417,15.299,41.904,30.705,47.496,36.269v1.842c0,13.298,10.818,24.116,24.116,24.116s24.116-10.818,24.116-24.116V24.117  C440.378,10.819,429.561,0,416.263,0c-13.298,0-24.116,10.819-24.116,24.117v1.839c-12.536,12.452-79.968,74.306-182.435,75.077  c-4.441,0.033-8.023,3.644-8.023,8.085v5.673h-28.387c-16.528,0-29.973,13.446-29.973,29.972v4.313  c-40.765,10.99-69.779,46.762-72.571,88.511H47.166c-4.466,0-8.085,3.619-8.085,8.085v185.013c0,4.466,3.619,8.085,8.085,8.085  h84.133v18.408h-5.336c-15.001,0-27.205,12.204-27.205,27.204v0.413c0,15.001,12.204,27.205,27.205,27.205h21.852  c4.466,0,8.085-3.619,8.085-8.085s-3.619-8.085-8.085-8.085h-21.852c-6.084,0-11.035-4.951-11.035-11.035v-0.413  c0-6.085,4.951-11.034,11.035-11.034h13.421h292.91h13.419c6.086,0,11.038,4.95,11.038,11.034v0.413  c0,6.085-4.952,11.035-11.038,11.035h-270.58c-4.466,0-8.085,3.619-8.085,8.085s3.619,8.085,8.085,8.085h270.58  c15.002,0,27.207-12.204,27.207-27.205v-0.413C472.92,469.382,460.714,457.177,445.712,457.177z M228.994,321.331h41.3v19.916h-41.3  V321.331z M408.317,24.117c0-4.382,3.565-7.947,7.946-7.947c4.382,0,7.946,3.565,7.946,7.947v259.291  c0,4.381-3.565,7.946-7.946,7.946s-7.946-3.565-7.946-7.946v-5.129V29.244V24.117z M217.858,117.023  c59.123-2.202,106.147-23.415,135.654-41.257c16.748-10.128,29.74-20.197,38.635-27.834v211.66  c-8.894-7.636-21.887-17.707-38.636-27.834c-29.507-17.842-76.53-39.054-135.653-41.255v-3.183v-64.442L217.858,117.023  L217.858,117.023z M159.499,144.762c0-7.611,6.192-13.802,13.804-13.802h28.387v48.272h-28.387c-7.612,0-13.804-6.191-13.804-13.8  L159.499,144.762L159.499,144.762z M147.469,457.177v-52.983h276.74v52.983H147.469z"/>
<path d="M400.232,422.6H174.133c-4.466,0-8.085,3.619-8.085,8.085s3.619,8.085,8.085,8.085h226.099c4.466,0,8.085-3.619,8.085-8.085  S404.697,422.6,400.232,422.6z"/>
<g style="opacity:0.1;">
	<rect x="228.835" y="316.981" width="10.766" height="28.071"/>
</g>
<g style="opacity:0.1;">
	<rect x="210.886" y="112.703" width="17.757" height="86.146"/>
</g>
<g>
</g>
<g>
</g>
<g>
</g>
<g>
</g>
<g>
</g>
<g>
</g>
<g>
</g>
<g>
</g>
<g>
</g>
<g>
</g>
<g>
</g>
<g>
</g>
<g>
</g>
<g>
</g>
<g>
</g>
</svg>
