<svg id="Layer_1" data-name="Layer 1" xmlns="http://www.w3.org/2000/svg" viewBox="0 0 128 128"><title>GUITAR</title><path d="M57.041,66.093c-1.768-14.024-11.8-20.229-12.514-11.951-.636,7.415,1.288,18.272-10.144,18.272-32.213,0-22.831,27.15-13.165,36.816s21.877,13.126,30.391,4.612c12.876-12.876,1.3-21.877,14.527-25.607,3.992-1.126,16.179-5.73,15.706-9.041s-7.1-1.1-11.194-3S57.381,68.793,57.041,66.093Z" style="fill:#f8b62b"/><path d="M75.012,77.066a12.109,12.109,0,0,1-4.365-.868,62.609,62.609,0,0,1-7.475-4.256c-4.454-2.262-12.091-7.053-12.4-9.516a25.744,25.744,0,0,0-4.339-11.835c-1.014.4-1.733,1.55-1.9,3.551-.636,7.415,1.288,18.272-10.144,18.272-32.213,0-22.831,27.15-13.165,36.816a41.284,41.284,0,0,0,4.57,3.96c6.936,2.989,14.023,2.513,19.551-3.015C58.215,97.3,46.639,88.3,59.865,84.568,63.267,83.609,72.612,80.125,75.012,77.066Z" style="fill:#f9d12f"/><rect x="43.916" y="45.572" width="71.433" height="10" transform="translate(-12.436 71.121) rotate(-45)" style="fill:#fd852b"/><path d="M114.7,7.806a1.754,1.754,0,0,0-2.118.275L100.116,20.544a1.749,1.749,0,0,0,0,2.475l7.071,7.07a1.75,1.75,0,0,0,2.924-.771L115.5,9.784A1.751,1.751,0,0,0,114.7,7.806Z" style="fill:#f9d12f"/><rect x="25.89" y="92.411" width="5.493" height="17.833" transform="translate(-63.262 49.927) rotate(-45)" style="fill:#2ec3fc"/><rect x="37.942" y="84.197" width="5.493" height="10.157" transform="translate(-51.21 54.921) rotate(-45.001)" style="fill:#1ba4fc"/><rect x="41.827" y="80.313" width="5.493" height="10.157" transform="translate(-47.325 56.527) rotate(-44.999)" style="fill:#2ec3fc"/><rect x="58.352" y="63.307" width="7.09" height="10" transform="translate(-30.171 63.774) rotate(-44.999)" style="fill:#fc6928"/><rect x="68.379" y="53.281" width="7.09" height="10" transform="translate(-20.145 67.927) rotate(-44.999)" style="fill:#fc6928"/><rect x="78.405" y="43.254" width="7.09" height="10" transform="translate(-10.118 72.082) rotate(-45.001)" style="fill:#fc6928"/><rect x="88.432" y="33.228" width="7.09" height="10" transform="translate(-0.092 76.235) rotate(-45.001)" style="fill:#fc6928"/><path d="M108.424,30.6a1.748,1.748,0,0,0,1.687-1.284L115.5,9.784a1.75,1.75,0,0,0-2.924-1.7l-5.392,22.008A1.748,1.748,0,0,0,108.424,30.6Z" style="fill:#f8b62b"/></svg>