<?xml version="1.0" encoding="iso-8859-1"?>
<!-- Generator: Adobe Illustrator 19.0.0, SVG Export Plug-In . SVG Version: 6.00 Build 0)  -->
<svg xmlns="http://www.w3.org/2000/svg" xmlns:xlink="http://www.w3.org/1999/xlink" version="1.1" id="Layer_1" x="0px" y="0px" viewBox="0 0 512 512" style="enable-background:new 0 0 512 512;" xml:space="preserve">
<path style="fill:#FFD05C;" d="M268.996,442.014c3.744,0,7.265-1.459,9.912-4.107c2.644-2.644,4.101-6.165,4.101-9.912  c0-3.748-1.456-7.269-4.101-9.913c-2.647-2.648-6.168-4.108-9.913-4.108c-3.744,0-7.264,1.459-9.911,4.106  c-2.648,2.648-4.108,6.169-4.108,9.913c0,3.745,1.459,7.266,4.107,9.912C261.73,440.555,265.251,442.014,268.996,442.014z"/>
<rect x="151.655" y="413.483" transform="matrix(-0.7071 0.7071 -0.7071 -0.7071 597.0677 606.8746)" style="fill:#FFAC61;" width="42.382" height="27.221"/>
<g>
	<path style="fill:#FFD05C;" d="M359.584,317.579c-2.645,2.644-4.101,6.165-4.101,9.913s1.456,7.27,4.101,9.914   c2.647,2.647,6.169,4.105,9.914,4.105c3.744,0,7.264-1.459,9.912-4.106c2.644-2.644,4.101-6.165,4.101-9.913   s-1.456-7.269-4.1-9.913c-2.647-2.648-6.168-4.107-9.913-4.107C365.752,313.471,362.231,314.93,359.584,317.579z"/>
	<path style="fill:#FFD05C;" d="M329.159,387.656c2.644-2.644,4.101-6.165,4.101-9.913c0-3.748-1.456-7.269-4.101-9.913   c-2.647-2.647-6.168-4.106-9.913-4.106c-3.745,0-7.266,1.459-9.911,4.106c-2.644,2.644-4.102,6.165-4.102,9.913   c0,3.748,1.456,7.269,4.101,9.912c2.647,2.648,6.168,4.108,9.913,4.108C322.992,391.763,326.513,390.306,329.159,387.656z"/>
	<path style="fill:#FFD05C;" d="M456.614,230.589l-87.551-87.548l-0.302,4.79c-1.596,25.297-9.382,72.844-43.601,107.065   c-3.209,3.208-5.552,5.745-6.774,7.336c-0.158,0.206-0.331,0.401-0.51,0.582L186.646,394.041l19.248,19.247l138.827-138.83   c34.197-34.195,81.78-41.974,107.101-43.567L456.614,230.589z"/>
</g>
<path style="fill:#FFAC61;" d="M495.536,224.733l-120.65-120.65c-0.377-0.379-0.793-0.722-1.236-1.016  c-1.331-0.892-2.888-1.363-4.503-1.363c-2.167,0-4.206,0.844-5.738,2.376l-2.485,2.486c-1.533,1.533-2.378,3.571-2.378,5.738  c0,2.166,0.844,4.204,2.376,5.736l120.653,120.652c1.532,1.534,3.57,2.379,5.737,2.379s4.206-0.844,5.737-2.378l2.485-2.485  c1.533-1.533,2.378-3.571,2.378-5.738C497.912,228.302,497.068,226.266,495.536,224.733z"/>
<g style="opacity:0.1;">
	<path d="M370.676,126.709c-1.532-1.532-2.376-3.57-2.376-5.736c0-2.167,0.844-4.205,2.378-5.738l2.485-2.486   c1.532-1.532,3.571-2.376,5.738-2.376c0.964,0,1.901,0.187,2.787,0.513l-6.801-6.801c-0.377-0.379-0.793-0.722-1.236-1.016   c-1.331-0.892-2.888-1.363-4.503-1.363c-2.167,0-4.206,0.844-5.738,2.376l-2.485,2.486c-1.533,1.533-2.378,3.571-2.378,5.738   c0,2.166,0.844,4.204,2.376,5.736l120.653,120.652c0.854,0.855,1.868,1.487,2.97,1.887L370.676,126.709z"/>
</g>
<path style="fill:#FFD05C;" d="M263.372,159.851c-2.742-2.742-6.388-4.252-10.266-4.252c-3.878,0-7.525,1.51-10.267,4.253  L101.356,301.338c-2.743,2.742-4.254,6.388-4.254,10.266c0,3.878,1.511,7.524,4.253,10.266c0.971,0.971,2.077,1.801,3.293,2.47  c2.125,1.165,4.536,1.783,6.971,1.784h0.001c2.151,0,4.237-0.471,6.201-1.4c1.528-0.724,2.897-1.685,4.066-2.854l141.485-141.485  C269.032,174.723,269.033,165.513,263.372,159.851z"/>
<g style="opacity:0.1;">
	<polygon points="157.276,441.473 187.247,411.501 178.215,402.47 148.244,432.442 167.491,451.69 167.491,451.69  "/>
</g>
<g style="opacity:0.1;">
	<path d="M326.905,271.845c0.18-0.181,0.352-0.376,0.51-0.582c1.222-1.592,3.565-4.129,6.774-7.336   c34.219-34.221,42.006-81.768,43.601-107.065l0.302-4.79l78.519,78.517l0,0l-87.551-87.548l-0.302,4.79   c-1.596,25.297-9.382,72.844-43.601,107.065c-3.209,3.208-5.552,5.745-6.774,7.336c-0.158,0.206-0.331,0.401-0.51,0.582   L186.646,394.041l9.031,9.031L326.905,271.845z"/>
</g>
<g style="opacity:0.1;">
	<path d="M106.134,320.634c0-3.877,1.512-7.523,4.254-10.266l141.485-141.485c2.741-2.743,6.388-4.253,10.267-4.253   c1.62,0,3.194,0.279,4.684,0.786c-0.692-2.033-1.831-3.946-3.45-5.565c-2.742-2.742-6.388-4.252-10.266-4.252   c-3.878,0-7.525,1.51-10.267,4.253L101.356,301.338c-2.743,2.742-4.254,6.388-4.254,10.266c0,3.878,1.511,7.524,4.253,10.266   c0.971,0.971,2.077,1.801,3.293,2.47c0.723,0.397,1.488,0.704,2.267,0.972C106.412,323.823,106.134,322.251,106.134,320.634z"/>
</g>
<path d="M505.498,214.771l-54.421-54.421l39.471-39.471c27.528-27.529,27.529-72.323,0.001-99.852  C463.023-6.5,418.229-6.5,390.699,21.029L266.76,144.969c-4.142-2.256-8.805-3.458-13.653-3.458c-7.642,0-14.827,2.977-20.229,8.379  L91.395,291.375c-5.404,5.402-8.38,12.587-8.38,20.228c0,4.848,1.202,9.51,3.458,13.653l-23.365,23.365  c-3.174,3.175-3.174,8.32,0,11.494c3.174,3.173,8.32,3.173,11.494,0l23.362-23.363c0.027,0.015,0.055,0.027,0.082,0.041  c0.472,0.255,0.95,0.497,1.436,0.725c0.102,0.048,0.207,0.091,0.31,0.138c0.389,0.177,0.78,0.346,1.177,0.504  c0.16,0.065,0.323,0.126,0.484,0.186c0.357,0.135,0.715,0.263,1.077,0.384c0.16,0.053,0.32,0.108,0.481,0.159  c0.436,0.137,0.876,0.263,1.319,0.379c0.079,0.021,0.157,0.046,0.237,0.065c0.523,0.132,1.052,0.248,1.584,0.35  c0.142,0.027,0.285,0.049,0.427,0.074c0.394,0.069,0.791,0.133,1.19,0.186c0.181,0.024,0.362,0.046,0.543,0.067  c0.385,0.044,0.772,0.079,1.161,0.108c0.166,0.012,0.331,0.027,0.497,0.037c0.547,0.031,1.097,0.051,1.649,0.051c0,0,0,0,0.001,0  l0,0c0.061,0,0.121-0.004,0.182-0.004c7.573-0.048,14.686-3.015,20.046-8.375l14.768-14.768c0.146,0.173,0.296,0.345,0.459,0.508  l48.058,48.058l-22.666,22.666l-38.401,38.402c-0.992,0.993-1.674,2.177-2.046,3.433c-0.223,0.754-0.335,1.534-0.335,2.314  c0,2.08,0.793,4.16,2.381,5.748l8.091,8.091l-33.163,33.165c-10.266,10.267-23.913,15.918-38.429,15.918  c-14.517,0-28.163-5.655-38.429-15.92c-19.242-19.242-21.264-49.985-4.702-71.512c0.001-0.001,0.001-0.001,0.002-0.002  c1.436-1.866,3.017-3.664,4.697-5.345l20.796-20.794c3.174-3.175,3.174-8.32,0-11.494c-3.174-3.173-8.32-3.173-11.494,0  l-20.794,20.794c-2.175,2.176-4.222,4.505-6.085,6.926c-0.001,0.002-0.002,0.004-0.004,0.007  c-21.523,27.975-18.905,67.92,6.092,92.915c13.336,13.337,31.065,20.681,49.922,20.682c0.001,0,0.001,0,0.003,0  c18.857,0,36.587-7.344,49.921-20.679l33.163-33.165l8.091,8.091c1.524,1.525,3.591,2.381,5.747,2.381s4.223-0.856,5.747-2.38  l38.401-38.403l22.667-22.667l9.907,9.908c-2.172,4.038-3.326,8.574-3.326,13.288c-0.001,7.508,2.924,14.566,8.232,19.874  c5.309,5.309,12.368,8.235,19.877,8.235c7.508,0,14.566-2.925,19.876-8.234c10.958-10.959,10.958-28.79,0-39.75  c-5.309-5.309-12.369-8.234-19.877-8.234c-4.714,0-9.25,1.154-13.288,3.326l-9.907-9.908l38.757-38.757l9.918,9.918  c-5.694,10.637-4.065,24.192,4.896,33.154c5.309,5.309,12.369,8.234,19.877,8.234c7.509,0,14.567-2.925,19.876-8.234  c10.958-10.958,10.958-28.79,0-39.751c-5.309-5.308-12.368-8.233-19.877-8.233c-4.713,0-9.249,1.154-13.286,3.325l-9.908-9.908  l38.756-38.756l9.918,9.918c-5.694,10.637-4.065,24.192,4.898,33.156c5.308,5.306,12.367,8.229,19.874,8.23h0.001  c7.508,0,14.566-2.924,19.874-8.233c10.958-10.959,10.958-28.791,0-39.751c-5.309-5.308-12.368-8.233-19.876-8.233  c-4.714,0-9.249,1.154-13.287,3.325l-9.908-9.908l8.381-8.381c36.973-36.974,93.284-39.848,109.662-39.848  c1.248,0,2.33,0.016,3.223,0.037l4.044,4.045c4.193,4.194,9.768,6.504,15.699,6.504c5.931,0,11.505-2.31,15.7-6.505l2.484-2.485  c4.194-4.193,6.503-9.768,6.503-15.698S509.691,218.965,505.498,214.771z M277.376,419.613c4.622,4.621,4.622,12.139,0,16.761  c-2.238,2.238-5.216,3.472-8.38,3.472c-3.166,0-6.143-1.234-8.381-3.473c-2.239-2.238-3.472-5.215-3.472-8.38  s1.234-6.142,3.473-8.381c2.238-2.238,5.214-3.471,8.379-3.471C272.162,416.14,275.139,417.374,277.376,419.613z M327.627,369.36  c4.622,4.622,4.622,12.141,0,16.763c-2.238,2.239-5.215,3.472-8.38,3.472s-6.143-1.234-8.381-3.473  c-4.622-4.621-4.622-12.14,0.001-16.762c2.238-2.238,5.215-3.471,8.379-3.471C322.412,365.889,325.389,367.123,327.627,369.36z   M377.878,319.111c4.622,4.621,4.622,12.14,0,16.762c-2.238,2.238-5.215,3.471-8.379,3.471c-3.168,0-6.144-1.233-8.382-3.47  c-4.622-4.623-4.622-12.142,0-16.763c2.238-2.239,5.216-3.472,8.381-3.472C372.663,315.639,375.64,316.872,377.878,319.111z   M402.194,32.524c21.192-21.194,55.674-21.192,76.862-0.002c10.267,10.266,15.919,23.913,15.919,38.431s-5.655,28.166-15.921,38.431  l-39.471,39.473L384.845,94.12c-0.525-0.524-1.07-1.019-1.635-1.484c-3.956-3.252-8.874-5.021-14.063-5.021  c-5.93,0-11.504,2.31-15.7,6.505l-2.485,2.486c-4.194,4.193-6.503,9.768-6.503,15.698s2.309,11.504,6.502,15.697l4.043,4.043  c0.306,13.881-0.787,73.868-39.806,112.888c-1.173,1.173-2.225,2.251-3.181,3.254c-0.27,0.283-0.529,0.558-0.781,0.828  c-0.726,0.776-1.385,1.5-1.976,2.172c-0.638,0.726-1.209,1.401-1.695,2.013l-0.431,0.431l-48.058-48.058  c-0.164-0.164-0.335-0.313-0.508-0.459l14.768-14.768c0.514-0.515,0.997-1.048,1.463-1.591c0.091-0.105,0.183-0.21,0.272-0.316  c0.442-0.529,0.863-1.07,1.26-1.622c0.075-0.103,0.145-0.208,0.218-0.312c0.379-0.542,0.74-1.091,1.077-1.653  c0.028-0.047,0.059-0.091,0.086-0.138c0.349-0.588,0.669-1.189,0.971-1.796c0.064-0.128,0.128-0.256,0.19-0.385  c0.288-0.599,0.557-1.206,0.801-1.821c0.041-0.103,0.077-0.207,0.117-0.31c0.223-0.581,0.427-1.167,0.611-1.759  c0.027-0.086,0.056-0.171,0.082-0.257c0.19-0.632,0.352-1.27,0.497-1.912c0.033-0.141,0.063-0.283,0.092-0.425  c0.135-0.643,0.254-1.288,0.345-1.938c0.012-0.088,0.021-0.177,0.031-0.264c0.079-0.607,0.138-1.216,0.178-1.826  c0.008-0.114,0.018-0.228,0.025-0.342c0.035-0.649,0.046-1.298,0.037-1.948c-0.002-0.142-0.007-0.284-0.01-0.426  c-0.018-0.661-0.053-1.322-0.117-1.981c-0.005-0.054-0.014-0.107-0.02-0.16c-0.065-0.627-0.154-1.253-0.26-1.876  c-0.022-0.127-0.04-0.252-0.064-0.379c-0.118-0.642-0.258-1.279-0.42-1.912c-0.033-0.129-0.069-0.257-0.104-0.385  c-0.176-0.649-0.366-1.295-0.588-1.933c-0.002-0.007-0.004-0.013-0.007-0.021c-0.224-0.644-0.481-1.28-0.753-1.909  c-0.052-0.12-0.103-0.241-0.156-0.361c-0.273-0.61-0.568-1.214-0.886-1.808c-0.02-0.037-0.036-0.076-0.055-0.113L402.194,32.524z   M247.119,216.559c0.146,0.173,0.296,0.345,0.459,0.508l48.058,48.058l-38.756,38.756l-48.058-48.058  c-0.164-0.164-0.335-0.313-0.508-0.459L247.119,216.559z M120.355,320.334c-0.299,0.299-0.609,0.578-0.93,0.84  c-0.051,0.041-0.106,0.076-0.157,0.117c-0.276,0.219-0.557,0.43-0.847,0.622c-0.009,0.005-0.018,0.011-0.027,0.016  c-4.087,2.681-9.425,2.686-13.518,0.018c-0.02-0.013-0.04-0.023-0.059-0.036c-0.264-0.174-0.518-0.37-0.772-0.567  c-0.077-0.061-0.159-0.113-0.235-0.174c-0.194-0.158-0.376-0.336-0.561-0.507c-0.12-0.111-0.246-0.212-0.362-0.328  c-2.333-2.332-3.617-5.435-3.617-8.733c0-3.299,1.285-6.4,3.618-8.733l141.486-141.486c2.332-2.333,5.433-3.618,8.733-3.618  c3.299,0,6.4,1.285,8.733,3.617c4.815,4.816,4.815,12.652-0.001,17.467L120.355,320.334z M158.571,306.074  c-0.164-0.164-0.335-0.312-0.507-0.458l38.806-38.806c0.146,0.173,0.296,0.345,0.459,0.508l48.058,48.058l-38.757,38.757  L158.571,306.074z M167.491,448.625l-8.082-8.083c-0.003-0.003-0.005-0.007-0.009-0.01l-8.091-8.091l26.907-26.907l16.182,16.182  L167.491,448.625z M343.19,272.925L205.893,410.222l-16.181-16.181l129.695-129.695c0.248-0.249,0.481-0.515,0.696-0.793  c0.814-1.06,2.618-3.156,6.588-7.124c34.463-34.463,42.558-81.908,44.232-108.461l80.762,80.761  C424.22,230.456,377.363,238.752,343.19,272.925z M494.002,234.676l-2.485,2.485c-1.123,1.124-2.616,1.743-4.205,1.743  c-1.589,0-3.081-0.619-4.204-1.743l-6.294-6.294L368.748,122.801c-0.003-0.003-0.008-0.007-0.011-0.01l-6.282-6.284  c-1.123-1.123-1.743-2.616-1.743-4.204c0-1.589,0.618-3.081,1.743-4.206l2.485-2.486c1.124-1.124,2.617-1.741,4.206-1.741  c1.588,0,3.081,0.618,4.204,1.741l60.485,60.485c0,0,0,0,0.001,0l60.167,60.167c1.124,1.123,1.741,2.616,1.741,4.205  C495.745,232.058,495.127,233.551,494.002,234.676z"/>
<g>
</g>
<g>
</g>
<g>
</g>
<g>
</g>
<g>
</g>
<g>
</g>
<g>
</g>
<g>
</g>
<g>
</g>
<g>
</g>
<g>
</g>
<g>
</g>
<g>
</g>
<g>
</g>
<g>
</g>
</svg>
