<svg xmlns="http://www.w3.org/2000/svg" width="128" height="128" viewBox="0 0 128 128">
  <title>TRUMPET</title>
  <path d="M117.306,33.164h-4.137a1.657,1.657,0,0,0-.256.026c-.021,0-.043,0-.065.006a1.752,1.752,0,0,0-.425.14c-.03.015-.057.032-.087.048a1.753,1.753,0,0,0-.325.227c-.014.012-.031.018-.044.031-.19.179-19.285,17.959-43.308,17.959H57.552V48.18h1.1a1.75,1.75,0,0,0,0-3.5h-5.7a1.75,1.75,0,0,0,0,3.5h1.1V51.6H45.985V48.18h1.1a1.75,1.75,0,0,0,0-3.5h-5.7a1.75,1.75,0,0,0,0,3.5h1.1V51.6H34.417V48.18h1.1a1.75,1.75,0,0,0,0-3.5h-5.7a1.75,1.75,0,0,0,0,3.5h1.1V51.6H19.811c-.043,0-.083.009-.125.012s-.08,0-.12.005L6.062,53.53a1.749,1.749,0,0,0-1.5,1.733V63a1.748,1.748,0,0,0,1.505,1.732l13.5,1.913a1.934,1.934,0,0,0,.239.017H30.917v3.413h-.474a12.382,12.382,0,0,0,0,24.764H58.027a12.382,12.382,0,1,0,0-24.764h-.475V66.659H68.659c23.98,0,43.118,17.779,43.309,17.959a1.293,1.293,0,0,0,.1.08,1.761,1.761,0,0,0,.145.113c.044.028.092.05.138.075s.1.057.158.08.111.035.168.052.1.034.152.044a1.828,1.828,0,0,0,.33.033h4.144a6.144,6.144,0,0,0,6.137-6.138V39.3A6.144,6.144,0,0,0,117.306,33.164ZM8.057,56.782l10-1.417v7.529l-10-1.416Zm13.5-1.681H66.909v8.058H21.561ZM66.909,82.454a8.892,8.892,0,0,1-8.882,8.882H30.443a8.882,8.882,0,0,1,0-17.764H58.027A8.893,8.893,0,0,1,66.909,82.454ZM54.052,70.072H34.417V66.659H54.052Zm16.357-15c19.179-.625,34.743-11.347,41.01-16.363V79.551c-6.267-5.016-21.831-15.738-41.01-16.363Zm49.534,23.886a2.641,2.641,0,0,1-2.637,2.638h-2.387V36.664h2.387a2.641,2.641,0,0,1,2.637,2.638Z" fill="#241c49" stroke="#0a2119" stroke-miterlimit="10"/>
</svg>
